<svg fill="#999999" xmlns:dc="http://purl.org/dc/elements/1.1/" xmlns:cc="http://creativecommons.org/ns#" xmlns:rdf="http://www.w3.org/1999/02/22-rdf-syntax-ns#" xmlns:svg="http://www.w3.org/2000/svg" xmlns="http://www.w3.org/2000/svg" xmlns:sodipodi="http://sodipodi.sourceforge.net/DTD/sodipodi-0.dtd" xmlns:inkscape="http://www.inkscape.org/namespaces/inkscape" version="1.1" x="0px" y="0px" viewBox="0 0 100 100"><g transform="translate(0,-952.36218)"><g transform="translate(8.9950798,961.32626)"><path d="M 34.015747,0.03543307 C 15.307086,0.03543307 0,15.307086 0,34.015747 c 0,18.708661 15.307086,34.015748 34.015747,34.015748 7.192914,0 13.854331,-2.30315 19.346457,-6.129921 l 18.389763,18.35433 c 2.338583,2.374016 6.165354,2.374016 8.503937,0 2.338582,-2.338583 2.338582,-6.129921 0,-8.468504 L 61.86614,53.397637 c 3.862205,-5.527559 6.129922,-12.188976 6.129922,-19.38189 0,-18.708661 -15.307087,-33.98031393 -33.980315,-33.98031393 z m 0,11.97637793 c 12.188976,0 21.968504,9.779527 21.968504,22.003936 0,12.22441 -9.779528,22.003937 -21.968504,22.003937 -12.224409,0 -22.003936,-9.779527 -22.003936,-22.003937 0,-12.224409 9.779527,-22.003936 22.003936,-22.003936 z" style="" fill="#999999" fill-opacity="1" fill-rule="nonzero" stroke="none"></path></g></g></svg>